<?xml version="1.0" encoding="UTF-8"?>
<!DOCTYPE svg PUBLIC "-//W3C//DTD SVG 1.1//EN" "http://www.w3.org/Graphics/SVG/1.1/DTD/svg11.dtd">
<!-- Creator: CorelDRAW 2020 (64-Bit) -->
<svg xmlns="http://www.w3.org/2000/svg" xml:space="preserve" width="10.4972in" height="4.89835in" version="1.1" style="shape-rendering:geometricPrecision; text-rendering:geometricPrecision; image-rendering:optimizeQuality; fill-rule:evenodd; clip-rule:evenodd"
viewBox="0 0 248.71 116.06"
 xmlns:xlink="http://www.w3.org/1999/xlink"
 xmlns:xodm="http://www.corel.com/coreldraw/odm/2003">
 <defs>
  <style type="text/css">
   <![CDATA[
    .fil0 {fill:black}
    .fil2 {fill:black;fill-rule:nonzero}
    .fil1 {fill:#1C39BB;fill-rule:nonzero}
   ]]>
  </style>
 </defs>
 <g id="Layer_x0020_1">
  <metadata id="CorelCorpID_0Corel-Layer"/>
  <path class="fil0" d="M22.65 0.17l12.06 -0.17c5.33,21.84 9.85,41.76 14.06,57.76 4.53,-18.8 9.36,-38.21 14.11,-57.76l13.5 0c-4.32,17.77 -7.91,32.5 -19.27,79.17l-18.14 0 -10.71 -44.08 -10.69 44.08 -14.24 -0.21c6.35,-26.14 12.78,-52.17 19.33,-78.8zm170.1 -0.17l12.79 0c4.67,19.13 9.4,38.7 14.03,57.74 4.53,-18.8 9.21,-38.19 13.96,-57.74l15.18 0c-4.32,17.77 -7.91,32.5 -19.27,79.17l-20.06 0 -10.67 -44.01 -10.67 44.01 -18.94 0c-11.36,-46.67 -14.95,-61.4 -19.27,-79.17l14.9 0c4.75,19.55 9.39,38.96 13.92,57.76 5,-18.99 9.44,-38.63 14.11,-57.76z"/>
  <path class="fil1" d="M199.32 107.72c0.95,-0 1.9,-0.01 2.85,-0.01 -0.14,0.8 -0.46,1.66 -0.83,2.35 -1.23,2.26 -3.46,3.49 -6.33,3.49 -5.15,0 -7.75,-3.65 -7.79,-8.07 -0.04,-4.8 2.49,-8.68 7.64,-8.68 5.49,0 7.58,4.39 7.42,9.26l-12.21 0c0.17,2.96 1.69,4.72 4.94,4.72 2.29,0 3.91,-1.39 4.31,-3.04zm-156.6 -10.79l2.17 0c0.98,4.02 1.9,8.14 2.95,12.13 0.95,-3.95 1.93,-8.02 2.92,-12.13l2.88 0c-0.91,3.73 -1.66,6.82 -4.04,16.62l-3.51 0 -2.24 -9.24 -2.24 9.24 -3.59 0c-2.38,-9.8 -3.14,-12.89 -4.04,-16.62l2.88 0c1,4.1 1.97,8.18 2.92,12.13 1.05,-3.99 1.97,-8.11 2.95,-12.13zm-42.72 16.65l0 -16.73 2.5 0 0 2.35c1.03,-1.53 2.47,-2.43 4.46,-2.48 1.92,-0.05 3.76,0.41 5.11,1.94 1.28,1.45 1.24,3.04 1.24,4.86l0 10.07 -2.78 0 0 -9.96c0,-2.77 -1.86,-4.32 -3.68,-4.23 -3.13,0.15 -4.06,2.29 -4.06,5.25l0 8.95 -2.78 0zm28.9 -5.81c0.95,-0 1.9,-0.01 2.85,-0.01 -0.14,0.8 -0.46,1.66 -0.83,2.35 -1.23,2.26 -3.46,3.49 -6.33,3.49 -5.15,0 -7.75,-3.65 -7.79,-8.07 -0.04,-4.8 2.49,-8.68 7.64,-8.68 5.49,0 7.58,4.39 7.42,9.26l-12.21 0c0.17,2.96 1.69,4.72 4.94,4.72 2.29,0 3.91,-1.39 4.31,-3.04zm-9.1 -3.95l9.13 0c-0.23,-2.63 -1.6,-4.37 -4.48,-4.37 -2.77,0 -4.47,1.72 -4.65,4.37zm117.36 -103.7l3.47 14.27 -56.26 0 3.47 -14.27 49.32 0zm15.65 64.87l3.58 14.37 -87.78 -0.09 3.47 -14.28 80.74 0zm-7.86 -32.81l3.49 14.37 -71.89 0 3.49 -14.37 64.91 0zm68.46 64.7l2.17 0c0.98,4.02 1.9,8.14 2.95,12.13 0.95,-3.95 1.93,-8.02 2.92,-12.13l2.88 0c-0.91,3.73 -1.66,6.82 -4.04,16.62l-3.51 0 -2.24 -9.24 -2.24 9.24 -3.59 0c-2.38,-9.8 -3.14,-12.89 -4.04,-16.62l2.88 0c1,4.1 1.97,8.18 2.92,12.13 1.05,-3.99 1.97,-8.11 2.95,-12.13zm-43.28 16.65l0 -16.73 2.5 0 0 2.35c1.03,-1.53 2.47,-2.43 4.46,-2.48 1.92,-0.05 3.76,0.41 5.11,1.94 1.28,1.45 1.24,3.04 1.24,4.86l0 10.07 -2.78 0 0 -9.96c0,-2.77 -1.86,-4.32 -3.68,-4.23 -3.13,0.15 -4.06,2.29 -4.06,5.25l0 8.95 -2.78 0zm20.08 -9.76l9.13 0c-0.23,-2.63 -1.6,-4.37 -4.48,-4.37 -2.77,0 -4.47,1.72 -4.65,4.37z"/>
  <path class="fil2" d="M110.16 111.5l2.05 0.04c0.11,0.82 0.44,1.45 0.96,1.89 0.52,0.43 1.39,0.6 2.25,0.6 0.81,0.01 1.6,-0.12 2.09,-0.53 0.79,-0.66 1.04,-1.85 0.07,-2.47 -0.29,-0.19 -1,-0.42 -2.13,-0.7 -1.52,-0.38 -2.57,-0.71 -3.16,-0.99 -1.12,-0.54 -1.79,-1.55 -1.79,-2.8 0,-1.08 0.52,-2.04 1.39,-2.67 0.82,-0.59 2.12,-0.91 3.11,-0.91 1.39,0 3.26,0.41 4.14,1.61 0.35,0.47 0.71,1.4 0.71,2.2l-2.03 -0.02c-0.09,-0.64 -0.36,-1.14 -0.8,-1.5 -0.86,-0.7 -3.04,-0.74 -3.91,-0.06 -1.05,0.81 -0.69,1.93 0.44,2.39 1.56,0.59 3.32,0.82 4.9,1.49 0.58,0.25 1.04,0.61 1.37,1.09 0.76,1.09 0.61,2.65 -0.11,3.73 -0.94,1.41 -2.72,2.08 -4.34,2.04 -2.82,-0.06 -4.94,-1.47 -5.23,-4.41z"/>
  <polygon class="fil2" points="105.44,116.06 105.44,103.03 108.15,103.03 108.15,116.06 "/>
  <polygon class="fil2" points="105.44,101.78 105.44,99.52 108.15,99.52 108.15,101.78 "/>
 </g>
</svg>
