<svg width="220" height="56" viewBox="0 0 220 56" fill="none" xmlns="http://www.w3.org/2000/svg">
<rect width="220" height="56" rx="8" fill="white"/>
<rect width="38" height="38" transform="translate(28 9)" fill="white"/>
<path fill-rule="evenodd" clip-rule="evenodd" d="M52.225 15.0673C53.555 13.4618 54.448 11.2246 54.2042 9C52.2915 9.07758 49.9767 10.2746 48.6071 11.8801C47.3769 13.3019 46.3002 15.5772 46.5915 17.7574C48.7227 17.9237 50.9014 16.6744 52.2282 15.0673M57.0099 29.1875C57.0637 34.9382 62.0544 36.8524 62.1082 36.8778C62.0686 37.0123 61.3134 39.6043 59.4799 42.2817C57.8965 44.5965 56.253 46.9034 53.6627 46.9509C51.1183 46.9968 50.3013 45.442 47.3911 45.442C44.4841 45.442 43.5753 46.9034 41.1655 46.9968C38.667 47.0918 36.7638 44.4936 35.1646 42.1883C31.903 37.4699 29.4092 28.8566 32.758 23.0426C34.4189 20.1546 37.3924 18.3258 40.6192 18.2799C43.0734 18.2324 45.3898 19.9313 46.8892 19.9313C48.3902 19.9313 51.2054 17.8888 54.1646 18.1881C55.4044 18.2403 58.8814 18.6884 61.1155 21.958C60.935 22.0688 56.9655 24.3805 57.0083 29.1875" fill="black"/>
<path d="M87.386 40.302H81.857L80.907 43H78.646L83.377 29.776H85.885L90.616 43H88.336L87.386 40.302ZM86.778 38.535L84.631 32.398L82.465 38.535H86.778ZM94.839 34.07C95.2064 33.5887 95.7067 33.1833 96.34 32.854C96.9734 32.5247 97.689 32.36 98.487 32.36C99.399 32.36 100.229 32.588 100.976 33.044C101.736 33.4873 102.331 34.1143 102.762 34.925C103.193 35.7357 103.408 36.6667 103.408 37.718C103.408 38.7693 103.193 39.713 102.762 40.549C102.331 41.3723 101.736 42.0183 100.976 42.487C100.229 42.943 99.399 43.171 98.487 43.171C97.689 43.171 96.9797 43.0127 96.359 42.696C95.7384 42.3667 95.2317 41.9613 94.839 41.48V47.978H92.673V32.531H94.839V34.07ZM101.204 37.718C101.204 36.996 101.052 36.3753 100.748 35.856C100.457 35.324 100.064 34.925 99.57 34.659C99.0887 34.3803 98.5694 34.241 98.012 34.241C97.4674 34.241 96.948 34.3803 96.454 34.659C95.9727 34.9377 95.58 35.343 95.276 35.875C94.9847 36.407 94.839 37.034 94.839 37.756C94.839 38.478 94.9847 39.1113 95.276 39.656C95.58 40.188 95.9727 40.5933 96.454 40.872C96.948 41.1507 97.4674 41.29 98.012 41.29C98.5694 41.29 99.0887 41.1507 99.57 40.872C100.064 40.5807 100.457 40.1627 100.748 39.618C101.052 39.0733 101.204 38.44 101.204 37.718ZM107.716 34.07C108.083 33.5887 108.584 33.1833 109.217 32.854C109.85 32.5247 110.566 32.36 111.364 32.36C112.276 32.36 113.106 32.588 113.853 33.044C114.613 33.4873 115.208 34.1143 115.639 34.925C116.07 35.7357 116.285 36.6667 116.285 37.718C116.285 38.7693 116.07 39.713 115.639 40.549C115.208 41.3723 114.613 42.0183 113.853 42.487C113.106 42.943 112.276 43.171 111.364 43.171C110.566 43.171 109.857 43.0127 109.236 42.696C108.615 42.3667 108.109 41.9613 107.716 41.48V47.978H105.55V32.531H107.716V34.07ZM114.081 37.718C114.081 36.996 113.929 36.3753 113.625 35.856C113.334 35.324 112.941 34.925 112.447 34.659C111.966 34.3803 111.446 34.241 110.889 34.241C110.344 34.241 109.825 34.3803 109.331 34.659C108.85 34.9377 108.457 35.343 108.153 35.875C107.862 36.407 107.716 37.034 107.716 37.756C107.716 38.478 107.862 39.1113 108.153 39.656C108.457 40.188 108.85 40.5933 109.331 40.872C109.825 41.1507 110.344 41.29 110.889 41.29C111.446 41.29 111.966 41.1507 112.447 40.872C112.941 40.5807 113.334 40.1627 113.625 39.618C113.929 39.0733 114.081 38.44 114.081 37.718ZM127.163 43.171C126.339 43.171 125.598 43.0253 124.94 42.734C124.294 42.43 123.781 42.0247 123.401 41.518C123.021 40.9987 122.818 40.4223 122.793 39.789H125.035C125.073 40.2323 125.282 40.606 125.662 40.91C126.054 41.2013 126.542 41.347 127.125 41.347C127.733 41.347 128.201 41.233 128.531 41.005C128.873 40.7643 129.044 40.4603 129.044 40.093C129.044 39.7003 128.854 39.409 128.474 39.219C128.106 39.029 127.517 38.82 126.707 38.592C125.921 38.3767 125.282 38.1677 124.788 37.965C124.294 37.7623 123.863 37.452 123.496 37.034C123.141 36.616 122.964 36.065 122.964 35.381C122.964 34.8237 123.128 34.317 123.458 33.861C123.787 33.3923 124.256 33.025 124.864 32.759C125.484 32.493 126.194 32.36 126.992 32.36C128.182 32.36 129.139 32.664 129.861 33.272C130.595 33.8673 130.988 34.6843 131.039 35.723H128.873C128.835 35.2543 128.645 34.8807 128.303 34.602C127.961 34.3233 127.498 34.184 126.916 34.184C126.346 34.184 125.909 34.2917 125.605 34.507C125.301 34.7223 125.149 35.0073 125.149 35.362C125.149 35.6407 125.25 35.875 125.453 36.065C125.655 36.255 125.902 36.407 126.194 36.521C126.485 36.6223 126.916 36.7553 127.486 36.92C128.246 37.1227 128.866 37.3317 129.348 37.547C129.842 37.7497 130.266 38.0537 130.621 38.459C130.975 38.8643 131.159 39.4027 131.172 40.074C131.172 40.6693 131.007 41.2013 130.678 41.67C130.348 42.1387 129.88 42.506 129.272 42.772C128.676 43.038 127.973 43.171 127.163 43.171ZM136.039 34.298V40.093C136.039 40.4857 136.128 40.7707 136.305 40.948C136.495 41.1127 136.812 41.195 137.255 41.195H138.585V43H136.875C135.9 43 135.152 42.772 134.633 42.316C134.114 41.86 133.854 41.119 133.854 40.093V34.298H132.619V32.531H133.854V29.928H136.039V32.531H138.585V34.298H136.039ZM145.122 43.171C144.134 43.171 143.241 42.9493 142.443 42.506C141.645 42.05 141.018 41.4167 140.562 40.606C140.106 39.7827 139.878 38.8327 139.878 37.756C139.878 36.692 140.113 35.7483 140.581 34.925C141.05 34.1017 141.69 33.4683 142.5 33.025C143.311 32.5817 144.217 32.36 145.217 32.36C146.218 32.36 147.124 32.5817 147.934 33.025C148.745 33.4683 149.385 34.1017 149.853 34.925C150.322 35.7483 150.556 36.692 150.556 37.756C150.556 38.82 150.316 39.7637 149.834 40.587C149.353 41.4103 148.694 42.05 147.858 42.506C147.035 42.9493 146.123 43.171 145.122 43.171ZM145.122 41.29C145.68 41.29 146.199 41.157 146.68 40.891C147.174 40.625 147.573 40.226 147.877 39.694C148.181 39.162 148.333 38.516 148.333 37.756C148.333 36.996 148.188 36.3563 147.896 35.837C147.605 35.305 147.219 34.906 146.737 34.64C146.256 34.374 145.737 34.241 145.179 34.241C144.622 34.241 144.103 34.374 143.621 34.64C143.153 34.906 142.779 35.305 142.5 35.837C142.222 36.3563 142.082 36.996 142.082 37.756C142.082 38.8833 142.367 39.7573 142.937 40.378C143.52 40.986 144.248 41.29 145.122 41.29ZM154.863 34.051C155.18 33.519 155.598 33.1073 156.117 32.816C156.649 32.512 157.276 32.36 157.998 32.36V34.602H157.447C156.599 34.602 155.953 34.8173 155.509 35.248C155.079 35.6787 154.863 36.426 154.863 37.49V43H152.697V32.531H154.863V34.051ZM169.584 37.509C169.584 37.9017 169.559 38.2563 169.508 38.573H161.509C161.573 39.409 161.883 40.0803 162.44 40.587C162.998 41.0937 163.682 41.347 164.492 41.347C165.658 41.347 166.481 40.8593 166.962 39.884H169.299C168.983 40.8467 168.406 41.6383 167.57 42.259C166.747 42.867 165.721 43.171 164.492 43.171C163.492 43.171 162.592 42.9493 161.794 42.506C161.009 42.05 160.388 41.4167 159.932 40.606C159.489 39.7827 159.267 38.8327 159.267 37.756C159.267 36.6793 159.483 35.7357 159.913 34.925C160.357 34.1017 160.971 33.4683 161.756 33.025C162.554 32.5817 163.466 32.36 164.492 32.36C165.48 32.36 166.361 32.5753 167.133 33.006C167.906 33.4367 168.508 34.0447 168.938 34.83C169.369 35.6027 169.584 36.4957 169.584 37.509ZM167.323 36.825C167.311 36.027 167.026 35.3873 166.468 34.906C165.911 34.4247 165.221 34.184 164.397 34.184C163.65 34.184 163.01 34.4247 162.478 34.906C161.946 35.3747 161.63 36.0143 161.528 36.825H167.323Z" fill="black"/>
<path d="M85.26 14.06C85.028 13.572 84.692 13.196 84.252 12.932C83.812 12.66 83.3 12.524 82.716 12.524C82.132 12.524 81.604 12.66 81.132 12.932C80.668 13.196 80.3 13.58 80.028 14.084C79.764 14.58 79.632 15.156 79.632 15.812C79.632 16.468 79.764 17.044 80.028 17.54C80.3 18.036 80.668 18.42 81.132 18.692C81.604 18.956 82.132 19.088 82.716 19.088C83.532 19.088 84.204 18.844 84.732 18.356C85.26 17.868 85.568 17.208 85.656 16.376H82.32V15.488H86.82V16.328C86.756 17.016 86.54 17.648 86.172 18.224C85.804 18.792 85.32 19.244 84.72 19.58C84.12 19.908 83.452 20.072 82.716 20.072C81.94 20.072 81.232 19.892 80.592 19.532C79.952 19.164 79.444 18.656 79.068 18.008C78.7 17.36 78.516 16.628 78.516 15.812C78.516 14.996 78.7 14.264 79.068 13.616C79.444 12.96 79.952 12.452 80.592 12.092C81.232 11.724 81.94 11.54 82.716 11.54C83.604 11.54 84.388 11.76 85.068 12.2C85.756 12.64 86.256 13.26 86.568 14.06H85.26ZM94.2638 16.46C94.2638 16.668 94.2518 16.888 94.2278 17.12H88.9718C89.0118 17.768 89.2318 18.276 89.6318 18.644C90.0398 19.004 90.5318 19.184 91.1078 19.184C91.5798 19.184 91.9718 19.076 92.2838 18.86C92.6038 18.636 92.8278 18.34 92.9558 17.972H94.1318C93.9558 18.604 93.6038 19.12 93.0758 19.52C92.5478 19.912 91.8918 20.108 91.1078 20.108C90.4838 20.108 89.9238 19.968 89.4278 19.688C88.9398 19.408 88.5558 19.012 88.2758 18.5C87.9958 17.98 87.8558 17.38 87.8558 16.7C87.8558 16.02 87.9918 15.424 88.2638 14.912C88.5358 14.4 88.9158 14.008 89.4038 13.736C89.8998 13.456 90.4678 13.316 91.1078 13.316C91.7318 13.316 92.2838 13.452 92.7638 13.724C93.2438 13.996 93.6118 14.372 93.8678 14.852C94.1318 15.324 94.2638 15.86 94.2638 16.46ZM93.1358 16.232C93.1358 15.816 93.0438 15.46 92.8598 15.164C92.6758 14.86 92.4238 14.632 92.1038 14.48C91.7918 14.32 91.4438 14.24 91.0598 14.24C90.5078 14.24 90.0358 14.416 89.6438 14.768C89.2598 15.12 89.0398 15.608 88.9838 16.232H93.1358ZM97.0373 14.324V18.2C97.0373 18.52 97.1053 18.748 97.2413 18.884C97.3773 19.012 97.6133 19.076 97.9492 19.076H98.7533V20H97.7693C97.1613 20 96.7053 19.86 96.4013 19.58C96.0973 19.3 95.9453 18.84 95.9453 18.2V14.324H95.0933V13.424H95.9453V11.768H97.0373V13.424H98.7533V14.324H97.0373ZM104.368 11.636V20H103.276V11.636H104.368ZM107.561 14.324V18.2C107.561 18.52 107.629 18.748 107.765 18.884C107.901 19.012 108.137 19.076 108.473 19.076H109.277V20H108.293C107.685 20 107.229 19.86 106.925 19.58C106.621 19.3 106.469 18.84 106.469 18.2V14.324H105.617V13.424H106.469V11.768H107.561V13.424H109.277V14.324H107.561ZM117.591 20.084C116.815 20.084 116.107 19.904 115.467 19.544C114.827 19.176 114.319 18.668 113.943 18.02C113.575 17.364 113.391 16.628 113.391 15.812C113.391 14.996 113.575 14.264 113.943 13.616C114.319 12.96 114.827 12.452 115.467 12.092C116.107 11.724 116.815 11.54 117.591 11.54C118.375 11.54 119.087 11.724 119.727 12.092C120.367 12.452 120.871 12.956 121.239 13.604C121.607 14.252 121.791 14.988 121.791 15.812C121.791 16.636 121.607 17.372 121.239 18.02C120.871 18.668 120.367 19.176 119.727 19.544C119.087 19.904 118.375 20.084 117.591 20.084ZM117.591 19.136C118.175 19.136 118.699 19 119.163 18.728C119.635 18.456 120.003 18.068 120.267 17.564C120.539 17.06 120.675 16.476 120.675 15.812C120.675 15.14 120.539 14.556 120.267 14.06C120.003 13.556 119.639 13.168 119.175 12.896C118.711 12.624 118.183 12.488 117.591 12.488C116.999 12.488 116.471 12.624 116.007 12.896C115.543 13.168 115.175 13.556 114.903 14.06C114.639 14.556 114.507 15.14 114.507 15.812C114.507 16.476 114.639 17.06 114.903 17.564C115.175 18.068 115.543 18.456 116.007 18.728C116.479 19 117.007 19.136 117.591 19.136ZM126.437 13.304C127.237 13.304 127.885 13.548 128.381 14.036C128.877 14.516 129.125 15.212 129.125 16.124V20H128.045V16.28C128.045 15.624 127.881 15.124 127.553 14.78C127.225 14.428 126.777 14.252 126.209 14.252C125.633 14.252 125.173 14.432 124.829 14.792C124.493 15.152 124.325 15.676 124.325 16.364V20H123.233V13.424H124.325V14.36C124.541 14.024 124.833 13.764 125.201 13.58C125.577 13.396 125.989 13.304 126.437 13.304Z" fill="black"/>
</svg>
