<svg width="220" height="56" viewBox="0 0 220 56" fill="none" xmlns="http://www.w3.org/2000/svg">
<rect width="220" height="56" rx="8" fill="white"/>
<g clip-path="url(#clip0_1_552)">
<rect width="29" height="32" transform="translate(28 12)" fill="white"/>
<path d="M41.5429 27.2555L28.1199 41.2931C28.2706 41.8263 28.5415 42.3181 28.9118 42.7308C29.2821 43.1435 29.7421 43.4662 30.2565 43.6743C30.7709 43.8824 31.3262 43.9703 31.8799 43.9313C32.4336 43.8924 32.971 43.7276 33.4511 43.4495L48.5546 34.8634L41.5429 27.2555Z" fill="#EA4335"/>
<path d="M55.1161 24.8694L48.5849 21.1353L41.2332 27.5748L48.6148 34.8432L55.0963 31.1491C55.6705 30.849 56.1514 30.3977 56.487 29.8443C56.8225 29.2908 56.9999 28.6562 56.9999 28.0092C56.9999 27.3623 56.8225 26.7276 56.487 26.1742C56.1514 25.6207 55.6705 25.1694 55.0963 24.8693H55.1163L55.1161 24.8694Z" fill="#FBBC04"/>
<path d="M28.1201 14.6558C28.039 14.9552 27.9986 15.2641 28 15.5743V40.3745C28.0009 40.6845 28.0412 40.9932 28.1201 41.2931L42.0033 27.615L28.1201 14.6558Z" fill="#4285F4"/>
<path d="M41.6429 27.9745L48.5846 21.1354L33.5012 12.5092C32.9337 12.1774 32.2882 12.0017 31.6306 12C29.9985 11.9968 28.5637 13.0781 28.1199 14.6458L41.6429 27.9745Z" fill="#34A853"/>
</g>
<path d="M79.982 33.595C79.64 32.9363 79.165 32.4423 78.557 32.113C77.949 31.771 77.246 31.6 76.448 31.6C75.574 31.6 74.795 31.7963 74.111 32.189C73.427 32.5817 72.8887 33.139 72.496 33.861C72.116 34.583 71.926 35.419 71.926 36.369C71.926 37.319 72.116 38.1613 72.496 38.896C72.8887 39.618 73.427 40.1753 74.111 40.568C74.795 40.9607 75.574 41.157 76.448 41.157C77.626 41.157 78.5823 40.8277 79.317 40.169C80.0517 39.5103 80.5013 38.6173 80.666 37.49H75.707V35.761H82.984V37.452C82.8447 38.478 82.4773 39.4217 81.882 40.283C81.2993 41.1443 80.533 41.8347 79.583 42.354C78.6457 42.8607 77.6007 43.114 76.448 43.114C75.2067 43.114 74.073 42.829 73.047 42.259C72.021 41.6763 71.204 40.872 70.596 39.846C70.0007 38.82 69.703 37.661 69.703 36.369C69.703 35.077 70.0007 33.918 70.596 32.892C71.204 31.866 72.021 31.068 73.047 30.498C74.0857 29.9153 75.2193 29.624 76.448 29.624C77.854 29.624 79.1017 29.9723 80.191 30.669C81.293 31.353 82.091 32.3283 82.585 33.595H79.982ZM89.6613 43.171C88.6733 43.171 87.7803 42.9493 86.9823 42.506C86.1843 42.05 85.5573 41.4167 85.1013 40.606C84.6453 39.7827 84.4173 38.8327 84.4173 37.756C84.4173 36.692 84.6516 35.7483 85.1203 34.925C85.589 34.1017 86.2286 33.4683 87.0393 33.025C87.85 32.5817 88.7556 32.36 89.7563 32.36C90.757 32.36 91.6626 32.5817 92.4733 33.025C93.284 33.4683 93.9236 34.1017 94.3923 34.925C94.861 35.7483 95.0953 36.692 95.0953 37.756C95.0953 38.82 94.8546 39.7637 94.3733 40.587C93.892 41.4103 93.2333 42.05 92.3973 42.506C91.574 42.9493 90.662 43.171 89.6613 43.171ZM89.6613 41.29C90.2186 41.29 90.738 41.157 91.2193 40.891C91.7133 40.625 92.1123 40.226 92.4163 39.694C92.7203 39.162 92.8723 38.516 92.8723 37.756C92.8723 36.996 92.7266 36.3563 92.4353 35.837C92.144 35.305 91.7576 34.906 91.2763 34.64C90.795 34.374 90.2756 34.241 89.7183 34.241C89.161 34.241 88.6416 34.374 88.1603 34.64C87.6916 34.906 87.318 35.305 87.0393 35.837C86.7606 36.3563 86.6213 36.996 86.6213 37.756C86.6213 38.8833 86.9063 39.7573 87.4763 40.378C88.059 40.986 88.7873 41.29 89.6613 41.29ZM101.778 43.171C100.79 43.171 99.8965 42.9493 99.0985 42.506C98.3005 42.05 97.6735 41.4167 97.2175 40.606C96.7615 39.7827 96.5335 38.8327 96.5335 37.756C96.5335 36.692 96.7679 35.7483 97.2365 34.925C97.7052 34.1017 98.3449 33.4683 99.1555 33.025C99.9662 32.5817 100.872 32.36 101.873 32.36C102.873 32.36 103.779 32.5817 104.59 33.025C105.4 33.4683 106.04 34.1017 106.509 34.925C106.977 35.7483 107.212 36.692 107.212 37.756C107.212 38.82 106.971 39.7637 106.49 40.587C106.008 41.4103 105.35 42.05 104.514 42.506C103.69 42.9493 102.778 43.171 101.778 43.171ZM101.778 41.29C102.335 41.29 102.854 41.157 103.336 40.891C103.83 40.625 104.229 40.226 104.533 39.694C104.837 39.162 104.989 38.516 104.989 37.756C104.989 36.996 104.843 36.3563 104.552 35.837C104.26 35.305 103.874 34.906 103.393 34.64C102.911 34.374 102.392 34.241 101.835 34.241C101.277 34.241 100.758 34.374 100.277 34.64C99.8079 34.906 99.4342 35.305 99.1555 35.837C98.8769 36.3563 98.7375 36.996 98.7375 37.756C98.7375 38.8833 99.0225 39.7573 99.5925 40.378C100.175 40.986 100.904 41.29 101.778 41.29ZM113.571 32.36C114.381 32.36 115.097 32.5247 115.718 32.854C116.351 33.1707 116.845 33.5697 117.2 34.051V32.531H119.385V43.171C119.385 44.1337 119.182 44.9887 118.777 45.736C118.371 46.496 117.782 47.0913 117.01 47.522C116.25 47.9527 115.338 48.168 114.274 48.168C112.855 48.168 111.677 47.8323 110.74 47.161C109.802 46.5023 109.27 45.603 109.144 44.463H111.291C111.455 45.0077 111.804 45.4447 112.336 45.774C112.88 46.116 113.526 46.287 114.274 46.287C115.148 46.287 115.851 46.021 116.383 45.489C116.927 44.957 117.2 44.1843 117.2 43.171V41.423C116.832 41.917 116.332 42.335 115.699 42.677C115.078 43.0063 114.369 43.171 113.571 43.171C112.659 43.171 111.823 42.943 111.063 42.487C110.315 42.0183 109.72 41.3723 109.277 40.549C108.846 39.713 108.631 38.7693 108.631 37.718C108.631 36.6667 108.846 35.7357 109.277 34.925C109.72 34.1143 110.315 33.4873 111.063 33.044C111.823 32.588 112.659 32.36 113.571 32.36ZM117.2 37.756C117.2 37.034 117.048 36.407 116.744 35.875C116.452 35.343 116.066 34.9377 115.585 34.659C115.103 34.3803 114.584 34.241 114.027 34.241C113.469 34.241 112.95 34.3803 112.469 34.659C111.987 34.925 111.595 35.324 111.291 35.856C110.999 36.3753 110.854 36.996 110.854 37.718C110.854 38.44 110.999 39.0733 111.291 39.618C111.595 40.1627 111.987 40.5807 112.469 40.872C112.963 41.1507 113.482 41.29 114.027 41.29C114.584 41.29 115.103 41.1507 115.585 40.872C116.066 40.5933 116.452 40.188 116.744 39.656C117.048 39.1113 117.2 38.478 117.2 37.756ZM124.396 28.94V43H122.23V28.94H124.396ZM136.834 37.509C136.834 37.9017 136.809 38.2563 136.758 38.573H128.759C128.823 39.409 129.133 40.0803 129.69 40.587C130.248 41.0937 130.932 41.347 131.742 41.347C132.908 41.347 133.731 40.8593 134.212 39.884H136.549C136.233 40.8467 135.656 41.6383 134.82 42.259C133.997 42.867 132.971 43.171 131.742 43.171C130.742 43.171 129.842 42.9493 129.044 42.506C128.259 42.05 127.638 41.4167 127.182 40.606C126.739 39.7827 126.517 38.8327 126.517 37.756C126.517 36.6793 126.733 35.7357 127.163 34.925C127.607 34.1017 128.221 33.4683 129.006 33.025C129.804 32.5817 130.716 32.36 131.742 32.36C132.73 32.36 133.611 32.5753 134.383 33.006C135.156 33.4367 135.758 34.0447 136.188 34.83C136.619 35.6027 136.834 36.4957 136.834 37.509ZM134.573 36.825C134.561 36.027 134.276 35.3873 133.718 34.906C133.161 34.4247 132.471 34.184 131.647 34.184C130.9 34.184 130.26 34.4247 129.728 34.906C129.196 35.3747 128.88 36.0143 128.778 36.825H134.573ZM146.068 34.07C146.435 33.5887 146.935 33.1833 147.569 32.854C148.202 32.5247 148.918 32.36 149.716 32.36C150.628 32.36 151.457 32.588 152.205 33.044C152.965 33.4873 153.56 34.1143 153.991 34.925C154.421 35.7357 154.637 36.6667 154.637 37.718C154.637 38.7693 154.421 39.713 153.991 40.549C153.56 41.3723 152.965 42.0183 152.205 42.487C151.457 42.943 150.628 43.171 149.716 43.171C148.918 43.171 148.208 43.0127 147.588 42.696C146.967 42.3667 146.46 41.9613 146.068 41.48V47.978H143.902V32.531H146.068V34.07ZM152.433 37.718C152.433 36.996 152.281 36.3753 151.977 35.856C151.685 35.324 151.293 34.925 150.799 34.659C150.317 34.3803 149.798 34.241 149.241 34.241C148.696 34.241 148.177 34.3803 147.683 34.659C147.201 34.9377 146.809 35.343 146.505 35.875C146.213 36.407 146.068 37.034 146.068 37.756C146.068 38.478 146.213 39.1113 146.505 39.656C146.809 40.188 147.201 40.5933 147.683 40.872C148.177 41.1507 148.696 41.29 149.241 41.29C149.798 41.29 150.317 41.1507 150.799 40.872C151.293 40.5807 151.685 40.1627 151.977 39.618C152.281 39.0733 152.433 38.44 152.433 37.718ZM158.945 28.94V43H156.779V28.94H158.945ZM161.066 37.718C161.066 36.6667 161.282 35.7357 161.712 34.925C162.156 34.1143 162.751 33.4873 163.498 33.044C164.258 32.588 165.094 32.36 166.006 32.36C166.83 32.36 167.545 32.5247 168.153 32.854C168.774 33.1707 169.268 33.5697 169.635 34.051V32.531H171.82V43H169.635V41.442C169.268 41.936 168.768 42.3477 168.134 42.677C167.501 43.0063 166.779 43.171 165.968 43.171C165.069 43.171 164.246 42.943 163.498 42.487C162.751 42.0183 162.156 41.3723 161.712 40.549C161.282 39.713 161.066 38.7693 161.066 37.718ZM169.635 37.756C169.635 37.034 169.483 36.407 169.179 35.875C168.888 35.343 168.502 34.9377 168.02 34.659C167.539 34.3803 167.02 34.241 166.462 34.241C165.905 34.241 165.386 34.3803 164.904 34.659C164.423 34.925 164.03 35.324 163.726 35.856C163.435 36.3753 163.289 36.996 163.289 37.718C163.289 38.44 163.435 39.0733 163.726 39.618C164.03 40.1627 164.423 40.5807 164.904 40.872C165.398 41.1507 165.918 41.29 166.462 41.29C167.02 41.29 167.539 41.1507 168.02 40.872C168.502 40.5933 168.888 40.188 169.179 39.656C169.483 39.1113 169.635 38.478 169.635 37.756ZM184.089 32.531L177.667 47.921H175.425L177.553 42.829L173.43 32.531H175.843L178.788 40.511L181.847 32.531H184.089Z" fill="black"/>
<path d="M76.26 14.06C76.028 13.572 75.692 13.196 75.252 12.932C74.812 12.66 74.3 12.524 73.716 12.524C73.132 12.524 72.604 12.66 72.132 12.932C71.668 13.196 71.3 13.58 71.028 14.084C70.764 14.58 70.632 15.156 70.632 15.812C70.632 16.468 70.764 17.044 71.028 17.54C71.3 18.036 71.668 18.42 72.132 18.692C72.604 18.956 73.132 19.088 73.716 19.088C74.532 19.088 75.204 18.844 75.732 18.356C76.26 17.868 76.568 17.208 76.656 16.376H73.32V15.488H77.82V16.328C77.756 17.016 77.54 17.648 77.172 18.224C76.804 18.792 76.32 19.244 75.72 19.58C75.12 19.908 74.452 20.072 73.716 20.072C72.94 20.072 72.232 19.892 71.592 19.532C70.952 19.164 70.444 18.656 70.068 18.008C69.7 17.36 69.516 16.628 69.516 15.812C69.516 14.996 69.7 14.264 70.068 13.616C70.444 12.96 70.952 12.452 71.592 12.092C72.232 11.724 72.94 11.54 73.716 11.54C74.604 11.54 75.388 11.76 76.068 12.2C76.756 12.64 77.256 13.26 77.568 14.06H76.26ZM85.2638 16.46C85.2638 16.668 85.2518 16.888 85.2278 17.12H79.9718C80.0118 17.768 80.2318 18.276 80.6318 18.644C81.0398 19.004 81.5318 19.184 82.1078 19.184C82.5798 19.184 82.9718 19.076 83.2838 18.86C83.6038 18.636 83.8278 18.34 83.9558 17.972H85.1318C84.9558 18.604 84.6038 19.12 84.0758 19.52C83.5478 19.912 82.8918 20.108 82.1078 20.108C81.4838 20.108 80.9238 19.968 80.4278 19.688C79.9398 19.408 79.5558 19.012 79.2758 18.5C78.9958 17.98 78.8558 17.38 78.8558 16.7C78.8558 16.02 78.9918 15.424 79.2638 14.912C79.5358 14.4 79.9158 14.008 80.4038 13.736C80.8998 13.456 81.4678 13.316 82.1078 13.316C82.7318 13.316 83.2838 13.452 83.7638 13.724C84.2438 13.996 84.6118 14.372 84.8678 14.852C85.1318 15.324 85.2638 15.86 85.2638 16.46ZM84.1358 16.232C84.1358 15.816 84.0438 15.46 83.8598 15.164C83.6758 14.86 83.4238 14.632 83.1038 14.48C82.7918 14.32 82.4438 14.24 82.0598 14.24C81.5078 14.24 81.0358 14.416 80.6438 14.768C80.2598 15.12 80.0398 15.608 79.9838 16.232H84.1358ZM88.0373 14.324V18.2C88.0373 18.52 88.1053 18.748 88.2413 18.884C88.3773 19.012 88.6133 19.076 88.9492 19.076H89.7533V20H88.7693C88.1613 20 87.7053 19.86 87.4013 19.58C87.0973 19.3 86.9453 18.84 86.9453 18.2V14.324H86.0933V13.424H86.9453V11.768H88.0373V13.424H89.7533V14.324H88.0373ZM95.3676 11.636V20H94.2756V11.636H95.3676ZM98.5607 14.324V18.2C98.5607 18.52 98.6287 18.748 98.7647 18.884C98.9007 19.012 99.1367 19.076 99.4727 19.076H100.277V20H99.2927C98.6847 20 98.2287 19.86 97.9247 19.58C97.6207 19.3 97.4687 18.84 97.4687 18.2V14.324H96.6167V13.424H97.4687V11.768H98.5607V13.424H100.277V14.324H98.5607ZM108.591 20.084C107.815 20.084 107.107 19.904 106.467 19.544C105.827 19.176 105.319 18.668 104.943 18.02C104.575 17.364 104.391 16.628 104.391 15.812C104.391 14.996 104.575 14.264 104.943 13.616C105.319 12.96 105.827 12.452 106.467 12.092C107.107 11.724 107.815 11.54 108.591 11.54C109.375 11.54 110.087 11.724 110.727 12.092C111.367 12.452 111.871 12.956 112.239 13.604C112.607 14.252 112.791 14.988 112.791 15.812C112.791 16.636 112.607 17.372 112.239 18.02C111.871 18.668 111.367 19.176 110.727 19.544C110.087 19.904 109.375 20.084 108.591 20.084ZM108.591 19.136C109.175 19.136 109.699 19 110.163 18.728C110.635 18.456 111.003 18.068 111.267 17.564C111.539 17.06 111.675 16.476 111.675 15.812C111.675 15.14 111.539 14.556 111.267 14.06C111.003 13.556 110.639 13.168 110.175 12.896C109.711 12.624 109.183 12.488 108.591 12.488C107.999 12.488 107.471 12.624 107.007 12.896C106.543 13.168 106.175 13.556 105.903 14.06C105.639 14.556 105.507 15.14 105.507 15.812C105.507 16.476 105.639 17.06 105.903 17.564C106.175 18.068 106.543 18.456 107.007 18.728C107.479 19 108.007 19.136 108.591 19.136ZM117.437 13.304C118.237 13.304 118.885 13.548 119.381 14.036C119.877 14.516 120.125 15.212 120.125 16.124V20H119.045V16.28C119.045 15.624 118.881 15.124 118.553 14.78C118.225 14.428 117.777 14.252 117.209 14.252C116.633 14.252 116.173 14.432 115.829 14.792C115.493 15.152 115.325 15.676 115.325 16.364V20H114.233V13.424H115.325V14.36C115.541 14.024 115.833 13.764 116.201 13.58C116.577 13.396 116.989 13.304 117.437 13.304Z" fill="black"/>
<defs>
<clipPath id="clip0_1_552">
<rect width="29" height="32" fill="white" transform="translate(28 12)"/>
</clipPath>
</defs>
</svg>
