<svg width="1968" height="576" viewBox="0 0 1968 576" fill="none" xmlns="http://www.w3.org/2000/svg" >
<path d="M124.153 456.403C125.707 458.065 126.24 460.976 125.276 465.337C124.325 469.641 121.987 474.985 118.391 481.031C111.212 493.105 99.2026 507.678 84.0491 521.847C68.8955 536.015 53.5496 547.02 41.0209 553.373C34.7473 556.555 29.2588 558.529 24.9003 559.189C20.4845 559.858 17.6159 559.131 16.0618 557.469C14.5078 555.807 13.9748 552.896 14.9386 548.535C15.8898 544.231 18.2282 538.887 21.8233 532.841C29.0028 520.767 41.0121 506.194 56.1656 492.025C71.3191 477.857 86.6651 466.852 99.1938 460.499C105.467 457.317 110.956 455.343 115.314 454.683C119.73 454.014 122.599 454.741 124.153 456.403Z" stroke="#655163" stroke-opacity="1" stroke-width="3"/>
<path d="M264.553 305.531C266.107 307.193 266.64 310.104 265.676 314.465C264.725 318.769 262.387 324.113 258.792 330.159C251.612 342.233 239.603 356.806 224.449 370.975C209.296 385.143 193.95 396.148 181.421 402.501C175.148 405.682 169.659 407.657 165.301 408.317C160.885 408.986 158.016 408.259 156.462 406.597C154.908 404.935 154.375 402.024 155.339 397.663C156.29 393.359 158.629 388.015 162.224 381.969C169.403 369.895 181.412 355.322 196.566 341.153C211.72 326.984 227.065 315.98 239.594 309.627C245.868 306.445 251.356 304.471 255.715 303.811C260.131 303.142 262.999 303.869 264.553 305.531Z" stroke="#655163" stroke-opacity="1" stroke-width="3"/>
<path d="M155.038 456.881C156.563 455.192 159.418 454.416 163.845 455.009C168.214 455.594 173.736 457.473 180.064 460.546C192.7 466.683 208.233 477.421 223.629 491.326C239.024 505.232 251.283 519.596 258.669 531.544C262.368 537.528 264.798 542.83 265.823 547.118C266.862 551.461 266.379 554.381 264.854 556.07C263.329 557.758 260.473 558.535 256.047 557.942C251.678 557.357 246.156 555.477 239.828 552.404C227.192 546.268 211.659 535.529 196.263 521.624C180.868 507.719 168.609 493.355 161.223 481.406C157.524 475.423 155.094 470.12 154.068 465.833C153.03 461.489 153.512 458.57 155.038 456.881Z" stroke="#655163" stroke-opacity="1" stroke-width="3"/>
<path d="M15.8013 307.172C17.3265 305.483 20.1821 304.707 24.6087 305.3C28.978 305.885 34.4997 307.765 40.8272 310.837C53.4635 316.974 68.9969 327.712 84.3923 341.618C99.7877 355.523 112.046 369.887 119.433 381.836C123.132 387.819 125.562 393.121 126.587 397.409C127.626 401.753 127.143 404.672 125.618 406.361C124.093 408.049 121.237 408.826 116.81 408.233C112.441 407.648 106.919 405.768 100.592 402.696C87.9557 396.559 72.4224 385.821 57.0269 371.915C41.6315 358.01 29.3728 343.646 21.9863 331.697C18.2875 325.714 15.8574 320.411 14.8321 316.124C13.7934 311.78 14.2761 308.861 15.8013 307.172Z" stroke="#655163" stroke-opacity="1" stroke-width="3"/>
<circle cx="140.5" cy="432" r="10" transform="rotate(-90 140.5 432)" stroke="#655163" stroke-opacity="1" stroke-width="3"/>
<circle cx="41.5" cy="431" r="16" transform="rotate(-90 41.5 431)" stroke="#655163" stroke-opacity="1" stroke-width="3"/>
<circle cx="140.5" cy="534" r="16" transform="rotate(-90 140.5 534)" stroke="#655163" stroke-opacity="1" stroke-width="3"/>
<circle cx="239.5" cy="432" r="16" transform="rotate(-90 239.5 432)" stroke="#655163" stroke-opacity="1" stroke-width="3"/>
<circle cx="140.5" cy="330" r="16" transform="rotate(-90 140.5 330)" stroke="#655163" stroke-opacity="1" stroke-width="3"/>
<path d="M1248.65 457.403C1250.21 459.065 1250.74 461.976 1249.78 466.337C1248.82 470.641 1246.49 475.985 1242.89 482.031C1235.71 494.105 1223.7 508.678 1208.55 522.847C1193.4 537.015 1178.05 548.02 1165.52 554.373C1159.25 557.555 1153.76 559.529 1149.4 560.189C1144.98 560.858 1142.12 560.131 1140.56 558.469C1139.01 556.807 1138.47 553.896 1139.44 549.535C1140.39 545.231 1142.73 539.887 1146.32 533.841C1153.5 521.767 1165.51 507.194 1180.67 493.025C1195.82 478.857 1211.17 467.852 1223.69 461.499C1229.97 458.317 1235.46 456.343 1239.81 455.683C1244.23 455.014 1247.1 455.741 1248.65 457.403Z" stroke="#655163" stroke-opacity="1" stroke-width="3"/>
<path d="M1389.05 306.531C1390.61 308.193 1391.14 311.104 1390.18 315.465C1389.23 319.769 1386.89 325.113 1383.29 331.159C1376.11 343.233 1364.1 357.806 1348.95 371.975C1333.8 386.143 1318.45 397.148 1305.92 403.501C1299.65 406.682 1294.16 408.657 1289.8 409.317C1285.38 409.986 1282.52 409.259 1280.96 407.597C1279.41 405.935 1278.88 403.024 1279.84 398.663C1280.79 394.359 1283.13 389.015 1286.72 382.969C1293.9 370.895 1305.91 356.322 1321.07 342.153C1336.22 327.984 1351.57 316.98 1364.09 310.627C1370.37 307.445 1375.86 305.471 1380.21 304.811C1384.63 304.142 1387.5 304.869 1389.05 306.531Z" stroke="#655163" stroke-opacity="1" stroke-width="3"/>
<path d="M1279.54 457.881C1281.06 456.192 1283.92 455.416 1288.35 456.009C1292.71 456.594 1298.24 458.473 1304.56 461.546C1317.2 467.683 1332.73 478.421 1348.13 492.326C1363.52 506.232 1375.78 520.596 1383.17 532.544C1386.87 538.528 1389.3 543.83 1390.32 548.118C1391.36 552.461 1390.88 555.381 1389.35 557.07C1387.83 558.758 1384.97 559.535 1380.55 558.942C1376.18 558.357 1370.66 556.477 1364.33 553.404C1351.69 547.268 1336.16 536.529 1320.76 522.624C1305.37 508.719 1293.11 494.355 1285.72 482.406C1282.02 476.423 1279.59 471.12 1278.57 466.833C1277.53 462.489 1278.01 459.57 1279.54 457.881Z" stroke="#655163" stroke-opacity="1" stroke-width="3"/>
<path d="M1140.3 308.172C1141.83 306.483 1144.68 305.707 1149.11 306.3C1153.48 306.885 1159 308.765 1165.33 311.837C1177.96 317.974 1193.5 328.712 1208.89 342.618C1224.29 356.523 1236.55 370.887 1243.93 382.836C1247.63 388.819 1250.06 394.121 1251.09 398.409C1252.13 402.753 1251.64 405.672 1250.12 407.361C1248.59 409.049 1245.74 409.826 1241.31 409.233C1236.94 408.648 1231.42 406.768 1225.09 403.696C1212.46 397.559 1196.92 386.821 1181.53 372.915C1166.13 359.01 1153.87 344.646 1146.49 332.697C1142.79 326.714 1140.36 321.411 1139.33 317.124C1138.29 312.78 1138.78 309.861 1140.3 308.172Z" stroke="#655163" stroke-opacity="1" stroke-width="3"/>
<circle cx="1265" cy="433" r="10" transform="rotate(-90 1265 433)" stroke="#655163" stroke-opacity="1" stroke-width="3"/>
<circle cx="1166" cy="432" r="16" transform="rotate(-90 1166 432)" stroke="#655163" stroke-opacity="1" stroke-width="3"/>
<circle cx="1265" cy="535" r="16" transform="rotate(-90 1265 535)" stroke="#655163" stroke-opacity="1" stroke-width="3"/>
<circle cx="1364" cy="433" r="16" transform="rotate(-90 1364 433)" stroke="#655163" stroke-opacity="1" stroke-width="3"/>
<circle cx="1265" cy="331" r="16" transform="rotate(-90 1265 331)" stroke="#655163" stroke-opacity="1" stroke-width="3"/>
<path d="M124.153 169.403C125.707 171.065 126.24 173.976 125.276 178.337C124.325 182.641 121.987 187.985 118.391 194.031C111.212 206.105 99.2026 220.678 84.0491 234.847C68.8955 249.015 53.5496 260.02 41.0209 266.373C34.7473 269.555 29.2588 271.529 24.9003 272.189C20.4845 272.858 17.6159 272.131 16.0618 270.469C14.5078 268.807 13.9748 265.896 14.9386 261.535C15.8898 257.231 18.2282 251.887 21.8233 245.841C29.0028 233.767 41.0121 219.194 56.1656 205.025C71.3191 190.857 86.6651 179.852 99.1938 173.499C105.467 170.317 110.956 168.343 115.314 167.683C119.73 167.014 122.599 167.741 124.153 169.403Z" stroke="#655163" stroke-opacity="1" stroke-width="3"/>
<path d="M264.553 18.5307C266.107 20.1928 266.64 23.1037 265.676 27.4647C264.725 31.7691 262.387 37.1127 258.792 43.1588C251.612 55.2329 239.603 69.806 224.449 83.9747C209.296 98.1434 193.95 109.148 181.421 115.501C175.148 118.682 169.659 120.657 165.301 121.317C160.885 121.986 158.016 121.259 156.462 119.597C154.908 117.935 154.375 115.024 155.339 110.663C156.29 106.359 158.629 101.015 162.224 94.9691C169.403 82.895 181.412 68.3219 196.566 54.1532C211.72 39.9845 227.065 28.98 239.594 22.6268C245.868 19.4454 251.356 17.4709 255.715 16.8106C260.131 16.1416 262.999 16.8686 264.553 18.5307Z" stroke="#655163" stroke-opacity="1" stroke-width="3"/>
<path d="M155.038 169.881C156.563 168.192 159.418 167.416 163.845 168.009C168.214 168.594 173.736 170.473 180.064 173.546C192.7 179.683 208.233 190.421 223.629 204.326C239.024 218.232 251.283 232.596 258.669 244.544C262.368 250.528 264.798 255.83 265.823 260.118C266.862 264.461 266.379 267.381 264.854 269.07C263.329 270.758 260.473 271.535 256.047 270.942C251.678 270.357 246.156 268.477 239.828 265.404C227.192 259.268 211.659 248.529 196.263 234.624C180.868 220.719 168.609 206.355 161.223 194.406C157.524 188.423 155.094 183.12 154.068 178.833C153.03 174.489 153.512 171.57 155.038 169.881Z" stroke="#655163" stroke-opacity="1" stroke-width="3"/>
<path d="M15.8013 20.1721C17.3265 18.4835 20.1821 17.7072 24.6087 18.2999C28.978 18.885 34.4997 20.7647 40.8272 23.8374C53.4635 29.9738 68.9969 40.7122 84.3923 54.6177C99.7877 68.5232 112.046 82.8871 119.433 94.8357C123.132 100.819 125.562 106.121 126.587 110.409C127.626 114.753 127.143 117.672 125.618 119.361C124.093 121.049 121.237 121.826 116.81 121.233C112.441 120.648 106.919 118.768 100.592 115.696C87.9557 109.559 72.4224 98.8207 57.0269 84.9153C41.6315 71.0098 29.3728 56.6459 21.9863 44.6972C18.2875 38.7141 15.8574 33.4115 14.8321 29.1241C13.7934 24.7804 14.2761 21.8608 15.8013 20.1721Z" stroke="#655163" stroke-opacity="1" stroke-width="3"/>
<circle cx="140.5" cy="145" r="10" transform="rotate(-90 140.5 145)" stroke="#655163" stroke-opacity="1" stroke-width="3"/>
<circle cx="41.5" cy="144" r="16" transform="rotate(-90 41.5 144)" stroke="#655163" stroke-opacity="1" stroke-width="3"/>
<circle cx="140.5" cy="247" r="16" transform="rotate(-90 140.5 247)" stroke="#655163" stroke-opacity="1" stroke-width="3"/>
<circle cx="239.5" cy="145" r="16" transform="rotate(-90 239.5 145)" stroke="#655163" stroke-opacity="1" stroke-width="3"/>
<circle cx="140.5" cy="43" r="16" transform="rotate(-90 140.5 43)" stroke="#655163" stroke-opacity="1" stroke-width="3"/>
<path d="M1248.65 170.403C1250.21 172.065 1250.74 174.976 1249.78 179.337C1248.82 183.641 1246.49 188.985 1242.89 195.031C1235.71 207.105 1223.7 221.678 1208.55 235.847C1193.4 250.015 1178.05 261.02 1165.52 267.373C1159.25 270.555 1153.76 272.529 1149.4 273.189C1144.98 273.858 1142.12 273.131 1140.56 271.469C1139.01 269.807 1138.47 266.896 1139.44 262.535C1140.39 258.231 1142.73 252.887 1146.32 246.841C1153.5 234.767 1165.51 220.194 1180.67 206.025C1195.82 191.857 1211.17 180.852 1223.69 174.499C1229.97 171.317 1235.46 169.343 1239.81 168.683C1244.23 168.014 1247.1 168.741 1248.65 170.403Z" stroke="#655163" stroke-opacity="1" stroke-width="3"/>
<path d="M1389.05 19.5307C1390.61 21.1928 1391.14 24.1037 1390.18 28.4647C1389.23 32.7691 1386.89 38.1127 1383.29 44.1588C1376.11 56.2329 1364.1 70.806 1348.95 84.9747C1333.8 99.1434 1318.45 110.148 1305.92 116.501C1299.65 119.682 1294.16 121.657 1289.8 122.317C1285.38 122.986 1282.52 122.259 1280.96 120.597C1279.41 118.935 1278.88 116.024 1279.84 111.663C1280.79 107.359 1283.13 102.015 1286.72 95.9691C1293.9 83.895 1305.91 69.3219 1321.07 55.1532C1336.22 40.9845 1351.57 29.98 1364.09 23.6268C1370.37 20.4454 1375.86 18.4709 1380.21 17.8106C1384.63 17.1416 1387.5 17.8686 1389.05 19.5307Z" stroke="#655163" stroke-opacity="1" stroke-width="3"/>
<path d="M1279.54 170.881C1281.06 169.192 1283.92 168.416 1288.35 169.009C1292.71 169.594 1298.24 171.473 1304.56 174.546C1317.2 180.683 1332.73 191.421 1348.13 205.326C1363.52 219.232 1375.78 233.596 1383.17 245.544C1386.87 251.528 1389.3 256.83 1390.32 261.118C1391.36 265.461 1390.88 268.381 1389.35 270.07C1387.83 271.758 1384.97 272.535 1380.55 271.942C1376.18 271.357 1370.66 269.477 1364.33 266.404C1351.69 260.268 1336.16 249.529 1320.76 235.624C1305.37 221.719 1293.11 207.355 1285.72 195.406C1282.02 189.423 1279.59 184.12 1278.57 179.833C1277.53 175.489 1278.01 172.57 1279.54 170.881Z" stroke="#655163" stroke-opacity="1" stroke-width="3"/>
<path d="M1140.3 21.1721C1141.83 19.4835 1144.68 18.7072 1149.11 19.2999C1153.48 19.885 1159 21.7647 1165.33 24.8374C1177.96 30.9738 1193.5 41.7122 1208.89 55.6177C1224.29 69.5232 1236.55 83.8871 1243.93 95.8357C1247.63 101.819 1250.06 107.121 1251.09 111.409C1252.13 115.753 1251.64 118.672 1250.12 120.361C1248.59 122.049 1245.74 122.826 1241.31 122.233C1236.94 121.648 1231.42 119.768 1225.09 116.696C1212.46 110.559 1196.92 99.8207 1181.53 85.9153C1166.13 72.0098 1153.87 57.6459 1146.49 45.6972C1142.79 39.7141 1140.36 34.4115 1139.33 30.1241C1138.29 25.7804 1138.78 22.8608 1140.3 21.1721Z" stroke="#655163" stroke-opacity="1" stroke-width="3"/>
<circle cx="1265" cy="146" r="10" transform="rotate(-90 1265 146)" stroke="#655163" stroke-opacity="1" stroke-width="3"/>
<circle cx="1166" cy="145" r="16" transform="rotate(-90 1166 145)" stroke="#655163" stroke-opacity="1" stroke-width="3"/>
<circle cx="1265" cy="248" r="16" transform="rotate(-90 1265 248)" stroke="#655163" stroke-opacity="1" stroke-width="3"/>
<circle cx="1364" cy="146" r="16" transform="rotate(-90 1364 146)" stroke="#655163" stroke-opacity="1" stroke-width="3"/>
<circle cx="1265" cy="44" r="16" transform="rotate(-90 1265 44)" stroke="#655163" stroke-opacity="1" stroke-width="3"/>
<path d="M405.153 169.403C406.707 171.065 407.24 173.976 406.276 178.337C405.325 182.641 402.987 187.985 399.391 194.031C392.212 206.105 380.203 220.678 365.049 234.847C349.896 249.015 334.55 260.02 322.021 266.373C315.747 269.555 310.259 271.529 305.9 272.189C301.484 272.858 298.616 272.131 297.062 270.469C295.508 268.807 294.975 265.896 295.939 261.535C296.89 257.231 299.228 251.887 302.823 245.841C310.003 233.767 322.012 219.194 337.166 205.025C352.319 190.857 367.665 179.852 380.194 173.499C386.467 170.317 391.956 168.343 396.314 167.683C400.73 167.014 403.599 167.741 405.153 169.403Z" stroke="#655163" stroke-opacity="1" stroke-width="3"/>
<path d="M545.553 18.5307C547.107 20.1928 547.64 23.1037 546.676 27.4647C545.725 31.7691 543.387 37.1127 539.792 43.1588C532.612 55.2329 520.603 69.806 505.449 83.9747C490.296 98.1434 474.95 109.148 462.421 115.501C456.148 118.682 450.659 120.657 446.301 121.317C441.885 121.986 439.016 121.259 437.462 119.597C435.908 117.935 435.375 115.024 436.339 110.663C437.29 106.359 439.629 101.015 443.224 94.9691C450.403 82.895 462.412 68.3219 477.566 54.1532C492.72 39.9845 508.065 28.98 520.594 22.6268C526.868 19.4454 532.356 17.4709 536.715 16.8106C541.131 16.1416 543.999 16.8686 545.553 18.5307Z" stroke="#655163" stroke-opacity="1" stroke-width="3"/>
<path d="M436.038 169.881C437.563 168.192 440.418 167.416 444.845 168.009C449.214 168.594 454.736 170.473 461.064 173.546C473.7 179.683 489.233 190.421 504.629 204.326C520.024 218.232 532.283 232.596 539.669 244.544C543.368 250.528 545.798 255.83 546.823 260.118C547.862 264.461 547.379 267.381 545.854 269.07C544.329 270.758 541.473 271.535 537.047 270.942C532.678 270.357 527.156 268.477 520.828 265.404C508.192 259.268 492.659 248.529 477.263 234.624C461.868 220.719 449.609 206.355 442.223 194.406C438.524 188.423 436.094 183.12 435.068 178.833C434.03 174.489 434.512 171.57 436.038 169.881Z" stroke="#655163" stroke-opacity="1" stroke-width="3"/>
<path d="M296.801 20.1721C298.326 18.4835 301.182 17.7072 305.609 18.2999C309.978 18.885 315.5 20.7647 321.827 23.8374C334.464 29.9738 349.997 40.7122 365.392 54.6177C380.788 68.5232 393.046 82.8871 400.433 94.8357C404.132 100.819 406.562 106.121 407.587 110.409C408.626 114.753 408.143 117.672 406.618 119.361C405.093 121.049 402.237 121.826 397.81 121.233C393.441 120.648 387.919 118.768 381.592 115.696C368.956 109.559 353.422 98.8207 338.027 84.9153C322.631 71.0098 310.373 56.6459 302.986 44.6972C299.288 38.7141 296.857 33.4115 295.832 29.1241C294.793 24.7804 295.276 21.8608 296.801 20.1721Z" stroke="#655163" stroke-opacity="1" stroke-width="3"/>
<circle cx="421.5" cy="145" r="10" transform="rotate(-90 421.5 145)" stroke="#655163" stroke-opacity="1" stroke-width="3"/>
<circle cx="322.5" cy="144" r="16" transform="rotate(-90 322.5 144)" stroke="#655163" stroke-opacity="1" stroke-width="3"/>
<circle cx="421.5" cy="247" r="16" transform="rotate(-90 421.5 247)" stroke="#655163" stroke-opacity="1" stroke-width="3"/>
<circle cx="520.5" cy="145" r="16" transform="rotate(-90 520.5 145)" stroke="#655163" stroke-opacity="1" stroke-width="3"/>
<circle cx="421.5" cy="43" r="16" transform="rotate(-90 421.5 43)" stroke="#655163" stroke-opacity="1" stroke-width="3"/>
<path d="M1529.65 170.403C1531.21 172.065 1531.74 174.976 1530.78 179.337C1529.82 183.641 1527.49 188.985 1523.89 195.031C1516.71 207.105 1504.7 221.678 1489.55 235.847C1474.4 250.015 1459.05 261.02 1446.52 267.373C1440.25 270.555 1434.76 272.529 1430.4 273.189C1425.98 273.858 1423.12 273.131 1421.56 271.469C1420.01 269.807 1419.47 266.896 1420.44 262.535C1421.39 258.231 1423.73 252.887 1427.32 246.841C1434.5 234.767 1446.51 220.194 1461.67 206.025C1476.82 191.857 1492.17 180.852 1504.69 174.499C1510.97 171.317 1516.46 169.343 1520.81 168.683C1525.23 168.014 1528.1 168.741 1529.65 170.403Z" stroke="#655163" stroke-opacity="1" stroke-width="3"/>
<path d="M1670.05 19.5307C1671.61 21.1928 1672.14 24.1037 1671.18 28.4647C1670.23 32.7691 1667.89 38.1127 1664.29 44.1588C1657.11 56.2329 1645.1 70.806 1629.95 84.9747C1614.8 99.1434 1599.45 110.148 1586.92 116.501C1580.65 119.682 1575.16 121.657 1570.8 122.317C1566.38 122.986 1563.52 122.259 1561.96 120.597C1560.41 118.935 1559.88 116.024 1560.84 111.663C1561.79 107.359 1564.13 102.015 1567.72 95.9691C1574.9 83.895 1586.91 69.3219 1602.07 55.1532C1617.22 40.9845 1632.57 29.98 1645.09 23.6268C1651.37 20.4454 1656.86 18.4709 1661.21 17.8106C1665.63 17.1416 1668.5 17.8686 1670.05 19.5307Z" stroke="#655163" stroke-opacity="1" stroke-width="3"/>
<path d="M1560.54 170.881C1562.06 169.192 1564.92 168.416 1569.35 169.009C1573.71 169.594 1579.24 171.473 1585.56 174.546C1598.2 180.683 1613.73 191.421 1629.13 205.326C1644.52 219.232 1656.78 233.596 1664.17 245.544C1667.87 251.528 1670.3 256.83 1671.32 261.118C1672.36 265.461 1671.88 268.381 1670.35 270.07C1668.83 271.758 1665.97 272.535 1661.55 271.942C1657.18 271.357 1651.66 269.477 1645.33 266.404C1632.69 260.268 1617.16 249.529 1601.76 235.624C1586.37 221.719 1574.11 207.355 1566.72 195.406C1563.02 189.423 1560.59 184.12 1559.57 179.833C1558.53 175.489 1559.01 172.57 1560.54 170.881Z" stroke="#655163" stroke-opacity="1" stroke-width="3"/>
<path d="M1421.3 21.1721C1422.83 19.4835 1425.68 18.7072 1430.11 19.2999C1434.48 19.885 1440 21.7647 1446.33 24.8374C1458.96 30.9738 1474.5 41.7122 1489.89 55.6177C1505.29 69.5232 1517.55 83.8871 1524.93 95.8357C1528.63 101.819 1531.06 107.121 1532.09 111.409C1533.13 115.753 1532.64 118.672 1531.12 120.361C1529.59 122.049 1526.74 122.826 1522.31 122.233C1517.94 121.648 1512.42 119.768 1506.09 116.696C1493.46 110.559 1477.92 99.8207 1462.53 85.9153C1447.13 72.0098 1434.87 57.6459 1427.49 45.6972C1423.79 39.7141 1421.36 34.4115 1420.33 30.1241C1419.29 25.7804 1419.78 22.8608 1421.3 21.1721Z" stroke="#655163" stroke-opacity="1" stroke-width="3"/>
<circle cx="1546" cy="146" r="10" transform="rotate(-90 1546 146)" stroke="#655163" stroke-opacity="1" stroke-width="3"/>
<circle cx="1447" cy="145" r="16" transform="rotate(-90 1447 145)" stroke="#655163" stroke-opacity="1" stroke-width="3"/>
<circle cx="1546" cy="248" r="16" transform="rotate(-90 1546 248)" stroke="#655163" stroke-opacity="1" stroke-width="3"/>
<circle cx="1645" cy="146" r="16" transform="rotate(-90 1645 146)" stroke="#655163" stroke-opacity="1" stroke-width="3"/>
<circle cx="1546" cy="44" r="16" transform="rotate(-90 1546 44)" stroke="#655163" stroke-opacity="1" stroke-width="3"/>
<path d="M405.153 456.403C406.707 458.065 407.24 460.976 406.276 465.337C405.325 469.641 402.987 474.985 399.391 481.031C392.212 493.105 380.203 507.678 365.049 521.847C349.896 536.015 334.55 547.02 322.021 553.373C315.747 556.555 310.259 558.529 305.9 559.189C301.484 559.858 298.616 559.131 297.062 557.469C295.508 555.807 294.975 552.896 295.939 548.535C296.89 544.231 299.228 538.887 302.823 532.841C310.003 520.767 322.012 506.194 337.166 492.025C352.319 477.857 367.665 466.852 380.194 460.499C386.467 457.317 391.956 455.343 396.314 454.683C400.73 454.014 403.599 454.741 405.153 456.403Z" stroke="#655163" stroke-opacity="1" stroke-width="3"/>
<path d="M545.553 305.531C547.107 307.193 547.64 310.104 546.676 314.465C545.725 318.769 543.387 324.113 539.792 330.159C532.612 342.233 520.603 356.806 505.449 370.975C490.296 385.143 474.95 396.148 462.421 402.501C456.148 405.682 450.659 407.657 446.301 408.317C441.885 408.986 439.016 408.259 437.462 406.597C435.908 404.935 435.375 402.024 436.339 397.663C437.29 393.359 439.629 388.015 443.224 381.969C450.403 369.895 462.412 355.322 477.566 341.153C492.72 326.984 508.065 315.98 520.594 309.627C526.868 306.445 532.356 304.471 536.715 303.811C541.131 303.142 543.999 303.869 545.553 305.531Z" stroke="#655163" stroke-opacity="1" stroke-width="3"/>
<path d="M436.038 456.881C437.563 455.192 440.418 454.416 444.845 455.009C449.214 455.594 454.736 457.473 461.064 460.546C473.7 466.683 489.233 477.421 504.629 491.326C520.024 505.232 532.283 519.596 539.669 531.544C543.368 537.528 545.798 542.83 546.823 547.118C547.862 551.461 547.379 554.381 545.854 556.07C544.329 557.758 541.473 558.535 537.047 557.942C532.678 557.357 527.156 555.477 520.828 552.404C508.192 546.268 492.659 535.529 477.263 521.624C461.868 507.719 449.609 493.355 442.223 481.406C438.524 475.423 436.094 470.12 435.068 465.833C434.03 461.489 434.512 458.57 436.038 456.881Z" stroke="#655163" stroke-opacity="1" stroke-width="3"/>
<path d="M296.801 307.172C298.326 305.483 301.182 304.707 305.609 305.3C309.978 305.885 315.5 307.765 321.827 310.837C334.464 316.974 349.997 327.712 365.392 341.618C380.788 355.523 393.046 369.887 400.433 381.836C404.132 387.819 406.562 393.121 407.587 397.409C408.626 401.753 408.143 404.672 406.618 406.361C405.093 408.049 402.237 408.826 397.81 408.233C393.441 407.648 387.919 405.768 381.592 402.696C368.956 396.559 353.422 385.821 338.027 371.915C322.631 358.01 310.373 343.646 302.986 331.697C299.288 325.714 296.857 320.411 295.832 316.124C294.793 311.78 295.276 308.861 296.801 307.172Z" stroke="#655163" stroke-opacity="1" stroke-width="3"/>
<circle cx="421.5" cy="432" r="10" transform="rotate(-90 421.5 432)" stroke="#655163" stroke-opacity="1" stroke-width="3"/>
<circle cx="322.5" cy="431" r="16" transform="rotate(-90 322.5 431)" stroke="#655163" stroke-opacity="1" stroke-width="3"/>
<circle cx="421.5" cy="534" r="16" transform="rotate(-90 421.5 534)" stroke="#655163" stroke-opacity="1" stroke-width="3"/>
<circle cx="520.5" cy="432" r="16" transform="rotate(-90 520.5 432)" stroke="#655163" stroke-opacity="1" stroke-width="3"/>
<circle cx="421.5" cy="330" r="16" transform="rotate(-90 421.5 330)" stroke="#655163" stroke-opacity="1" stroke-width="3"/>
<path d="M1529.65 457.403C1531.21 459.065 1531.74 461.976 1530.78 466.337C1529.82 470.641 1527.49 475.985 1523.89 482.031C1516.71 494.105 1504.7 508.678 1489.55 522.847C1474.4 537.015 1459.05 548.02 1446.52 554.373C1440.25 557.555 1434.76 559.529 1430.4 560.189C1425.98 560.858 1423.12 560.131 1421.56 558.469C1420.01 556.807 1419.47 553.896 1420.44 549.535C1421.39 545.231 1423.73 539.887 1427.32 533.841C1434.5 521.767 1446.51 507.194 1461.67 493.025C1476.82 478.857 1492.17 467.852 1504.69 461.499C1510.97 458.317 1516.46 456.343 1520.81 455.683C1525.23 455.014 1528.1 455.741 1529.65 457.403Z" stroke="#655163" stroke-opacity="1" stroke-width="3"/>
<path d="M1670.05 306.531C1671.61 308.193 1672.14 311.104 1671.18 315.465C1670.23 319.769 1667.89 325.113 1664.29 331.159C1657.11 343.233 1645.1 357.806 1629.95 371.975C1614.8 386.143 1599.45 397.148 1586.92 403.501C1580.65 406.682 1575.16 408.657 1570.8 409.317C1566.38 409.986 1563.52 409.259 1561.96 407.597C1560.41 405.935 1559.88 403.024 1560.84 398.663C1561.79 394.359 1564.13 389.015 1567.72 382.969C1574.9 370.895 1586.91 356.322 1602.07 342.153C1617.22 327.984 1632.57 316.98 1645.09 310.627C1651.37 307.445 1656.86 305.471 1661.21 304.811C1665.63 304.142 1668.5 304.869 1670.05 306.531Z" stroke="#655163" stroke-opacity="1" stroke-width="3"/>
<path d="M1560.54 457.881C1562.06 456.192 1564.92 455.416 1569.35 456.009C1573.71 456.594 1579.24 458.473 1585.56 461.546C1598.2 467.683 1613.73 478.421 1629.13 492.326C1644.52 506.232 1656.78 520.596 1664.17 532.544C1667.87 538.528 1670.3 543.83 1671.32 548.118C1672.36 552.461 1671.88 555.381 1670.35 557.07C1668.83 558.758 1665.97 559.535 1661.55 558.942C1657.18 558.357 1651.66 556.477 1645.33 553.404C1632.69 547.268 1617.16 536.529 1601.76 522.624C1586.37 508.719 1574.11 494.355 1566.72 482.406C1563.02 476.423 1560.59 471.12 1559.57 466.833C1558.53 462.489 1559.01 459.57 1560.54 457.881Z" stroke="#655163" stroke-opacity="1" stroke-width="3"/>
<path d="M1421.3 308.172C1422.83 306.483 1425.68 305.707 1430.11 306.3C1434.48 306.885 1440 308.765 1446.33 311.837C1458.96 317.974 1474.5 328.712 1489.89 342.618C1505.29 356.523 1517.55 370.887 1524.93 382.836C1528.63 388.819 1531.06 394.121 1532.09 398.409C1533.13 402.753 1532.64 405.672 1531.12 407.361C1529.59 409.049 1526.74 409.826 1522.31 409.233C1517.94 408.648 1512.42 406.768 1506.09 403.696C1493.46 397.559 1477.92 386.821 1462.53 372.915C1447.13 359.01 1434.87 344.646 1427.49 332.697C1423.79 326.714 1421.36 321.411 1420.33 317.124C1419.29 312.78 1419.78 309.861 1421.3 308.172Z" stroke="#655163" stroke-opacity="1" stroke-width="3"/>
<circle cx="1546" cy="433" r="10" transform="rotate(-90 1546 433)" stroke="#655163" stroke-opacity="1" stroke-width="3"/>
<circle cx="1447" cy="432" r="16" transform="rotate(-90 1447 432)" stroke="#655163" stroke-opacity="1" stroke-width="3"/>
<circle cx="1546" cy="535" r="16" transform="rotate(-90 1546 535)" stroke="#655163" stroke-opacity="1" stroke-width="3"/>
<circle cx="1645" cy="433" r="16" transform="rotate(-90 1645 433)" stroke="#655163" stroke-opacity="1" stroke-width="3"/>
<circle cx="1546" cy="331" r="16" transform="rotate(-90 1546 331)" stroke="#655163" stroke-opacity="1" stroke-width="3"/>
<path d="M686.153 456.403C687.707 458.065 688.24 460.976 687.276 465.337C686.325 469.641 683.987 474.985 680.391 481.031C673.212 493.105 661.203 507.678 646.049 521.847C630.896 536.015 615.55 547.02 603.021 553.373C596.747 556.555 591.259 558.529 586.9 559.189C582.484 559.858 579.616 559.131 578.062 557.469C576.508 555.807 575.975 552.896 576.939 548.535C577.89 544.231 580.228 538.887 583.823 532.841C591.003 520.767 603.012 506.194 618.166 492.025C633.319 477.857 648.665 466.852 661.194 460.499C667.467 457.317 672.956 455.343 677.314 454.683C681.73 454.014 684.599 454.741 686.153 456.403Z" stroke="#655163" stroke-opacity="1" stroke-width="3"/>
<path d="M826.553 305.531C828.107 307.193 828.64 310.104 827.676 314.465C826.725 318.769 824.387 324.113 820.792 330.159C813.612 342.233 801.603 356.806 786.449 370.975C771.296 385.143 755.95 396.148 743.421 402.501C737.148 405.682 731.659 407.657 727.301 408.317C722.885 408.986 720.016 408.259 718.462 406.597C716.908 404.935 716.375 402.024 717.339 397.663C718.29 393.359 720.629 388.015 724.224 381.969C731.403 369.895 743.412 355.322 758.566 341.153C773.72 326.984 789.065 315.98 801.594 309.627C807.868 306.445 813.356 304.471 817.715 303.811C822.131 303.142 824.999 303.869 826.553 305.531Z" stroke="#655163" stroke-opacity="1" stroke-width="3"/>
<path d="M717.038 456.881C718.563 455.192 721.418 454.416 725.845 455.009C730.214 455.594 735.736 457.473 742.064 460.546C754.7 466.683 770.233 477.421 785.629 491.326C801.024 505.232 813.283 519.596 820.669 531.544C824.368 537.528 826.798 542.83 827.823 547.118C828.862 551.461 828.379 554.381 826.854 556.07C825.329 557.758 822.473 558.535 818.047 557.942C813.678 557.357 808.156 555.477 801.828 552.404C789.192 546.268 773.659 535.529 758.263 521.624C742.868 507.719 730.609 493.355 723.223 481.406C719.524 475.423 717.094 470.12 716.068 465.833C715.03 461.489 715.512 458.57 717.038 456.881Z" stroke="#655163" stroke-opacity="1" stroke-width="3"/>
<path d="M577.801 307.172C579.326 305.483 582.182 304.707 586.609 305.3C590.978 305.885 596.5 307.765 602.827 310.837C615.464 316.974 630.997 327.712 646.392 341.618C661.788 355.523 674.046 369.887 681.433 381.836C685.132 387.819 687.562 393.121 688.587 397.409C689.626 401.753 689.143 404.672 687.618 406.361C686.093 408.049 683.237 408.826 678.81 408.233C674.441 407.648 668.919 405.768 662.592 402.696C649.956 396.559 634.422 385.821 619.027 371.915C603.631 358.01 591.373 343.646 583.986 331.697C580.288 325.714 577.857 320.411 576.832 316.124C575.793 311.78 576.276 308.861 577.801 307.172Z" stroke="#655163" stroke-opacity="1" stroke-width="3"/>
<circle cx="702.5" cy="432" r="10" transform="rotate(-90 702.5 432)" stroke="#655163" stroke-opacity="1" stroke-width="3"/>
<circle cx="603.5" cy="431" r="16" transform="rotate(-90 603.5 431)" stroke="#655163" stroke-opacity="1" stroke-width="3"/>
<circle cx="702.5" cy="534" r="16" transform="rotate(-90 702.5 534)" stroke="#655163" stroke-opacity="1" stroke-width="3"/>
<circle cx="801.5" cy="432" r="16" transform="rotate(-90 801.5 432)" stroke="#655163" stroke-opacity="1" stroke-width="3"/>
<circle cx="702.5" cy="330" r="16" transform="rotate(-90 702.5 330)" stroke="#655163" stroke-opacity="1" stroke-width="3"/>
<path d="M1810.65 457.403C1812.21 459.065 1812.74 461.976 1811.78 466.337C1810.82 470.641 1808.49 475.985 1804.89 482.031C1797.71 494.105 1785.7 508.678 1770.55 522.847C1755.4 537.015 1740.05 548.02 1727.52 554.373C1721.25 557.555 1715.76 559.529 1711.4 560.189C1706.98 560.858 1704.12 560.131 1702.56 558.469C1701.01 556.807 1700.47 553.896 1701.44 549.535C1702.39 545.231 1704.73 539.887 1708.32 533.841C1715.5 521.767 1727.51 507.194 1742.67 493.025C1757.82 478.857 1773.17 467.852 1785.69 461.499C1791.97 458.317 1797.46 456.343 1801.81 455.683C1806.23 455.014 1809.1 455.741 1810.65 457.403Z" stroke="#655163" stroke-opacity="1" stroke-width="3"/>
<path d="M1951.05 306.531C1952.61 308.193 1953.14 311.104 1952.18 315.465C1951.23 319.769 1948.89 325.113 1945.29 331.159C1938.11 343.233 1926.1 357.806 1910.95 371.975C1895.8 386.143 1880.45 397.148 1867.92 403.501C1861.65 406.682 1856.16 408.657 1851.8 409.317C1847.38 409.986 1844.52 409.259 1842.96 407.597C1841.41 405.935 1840.88 403.024 1841.84 398.663C1842.79 394.359 1845.13 389.015 1848.72 382.969C1855.9 370.895 1867.91 356.322 1883.07 342.153C1898.22 327.984 1913.57 316.98 1926.09 310.627C1932.37 307.445 1937.86 305.471 1942.21 304.811C1946.63 304.142 1949.5 304.869 1951.05 306.531Z" stroke="#655163" stroke-opacity="1" stroke-width="3"/>
<path d="M1841.54 457.881C1843.06 456.192 1845.92 455.416 1850.35 456.009C1854.71 456.594 1860.24 458.473 1866.56 461.546C1879.2 467.683 1894.73 478.421 1910.13 492.326C1925.52 506.232 1937.78 520.596 1945.17 532.544C1948.87 538.528 1951.3 543.83 1952.32 548.118C1953.36 552.461 1952.88 555.381 1951.35 557.07C1949.83 558.758 1946.97 559.535 1942.55 558.942C1938.18 558.357 1932.66 556.477 1926.33 553.404C1913.69 547.268 1898.16 536.529 1882.76 522.624C1867.37 508.719 1855.11 494.355 1847.72 482.406C1844.02 476.423 1841.59 471.12 1840.57 466.833C1839.53 462.489 1840.01 459.57 1841.54 457.881Z" stroke="#655163" stroke-opacity="1" stroke-width="3"/>
<path d="M1702.3 308.172C1703.83 306.483 1706.68 305.707 1711.11 306.3C1715.48 306.885 1721 308.765 1727.33 311.837C1739.96 317.974 1755.5 328.712 1770.89 342.618C1786.29 356.523 1798.55 370.887 1805.93 382.836C1809.63 388.819 1812.06 394.121 1813.09 398.409C1814.13 402.753 1813.64 405.672 1812.12 407.361C1810.59 409.049 1807.74 409.826 1803.31 409.233C1798.94 408.648 1793.42 406.768 1787.09 403.696C1774.46 397.559 1758.92 386.821 1743.53 372.915C1728.13 359.01 1715.87 344.646 1708.49 332.697C1704.79 326.714 1702.36 321.411 1701.33 317.124C1700.29 312.78 1700.78 309.861 1702.3 308.172Z" stroke="#655163" stroke-opacity="1" stroke-width="3"/>
<circle cx="1827" cy="433" r="10" transform="rotate(-90 1827 433)" stroke="#655163" stroke-opacity="1" stroke-width="3"/>
<circle cx="1728" cy="432" r="16" transform="rotate(-90 1728 432)" stroke="#655163" stroke-opacity="1" stroke-width="3"/>
<circle cx="1827" cy="535" r="16" transform="rotate(-90 1827 535)" stroke="#655163" stroke-opacity="1" stroke-width="3"/>
<circle cx="1926" cy="433" r="16" transform="rotate(-90 1926 433)" stroke="#655163" stroke-opacity="1" stroke-width="3"/>
<circle cx="1827" cy="331" r="16" transform="rotate(-90 1827 331)" stroke="#655163" stroke-opacity="1" stroke-width="3"/>
<path d="M967.653 455.903C969.207 457.565 969.74 460.476 968.776 464.837C967.825 469.141 965.487 474.485 961.891 480.531C954.712 492.605 942.703 507.178 927.549 521.347C912.396 535.515 897.05 546.52 884.521 552.873C878.247 556.055 872.759 558.029 868.4 558.689C863.984 559.358 861.116 558.631 859.562 556.969C858.008 555.307 857.475 552.396 858.439 548.035C859.39 543.731 861.728 538.387 865.323 532.341C872.503 520.267 884.512 505.694 899.666 491.525C914.819 477.357 930.165 466.352 942.694 459.999C948.967 456.817 954.456 454.843 958.814 454.183C963.23 453.514 966.099 454.241 967.653 455.903Z" stroke="#655163" stroke-opacity="1" stroke-width="3"/>
<path d="M1108.05 305.031C1109.61 306.693 1110.14 309.604 1109.18 313.965C1108.23 318.269 1105.89 323.613 1102.29 329.659C1095.11 341.733 1083.1 356.306 1067.95 370.475C1052.8 384.643 1037.45 395.648 1024.92 402.001C1018.65 405.182 1013.16 407.157 1008.8 407.817C1004.38 408.486 1001.52 407.759 999.962 406.097C998.408 404.435 997.875 401.524 998.839 397.163C999.79 392.859 1002.13 387.515 1005.72 381.469C1012.9 369.395 1024.91 354.822 1040.07 340.653C1055.22 326.484 1070.57 315.48 1083.09 309.127C1089.37 305.945 1094.86 303.971 1099.21 303.311C1103.63 302.642 1106.5 303.369 1108.05 305.031Z" stroke="#655163" stroke-opacity="1" stroke-width="3"/>
<path d="M998.538 456.381C1000.06 454.692 1002.92 453.916 1007.35 454.509C1011.71 455.094 1017.24 456.973 1023.56 460.046C1036.2 466.183 1051.73 476.921 1067.13 490.826C1082.52 504.732 1094.78 519.096 1102.17 531.044C1105.87 537.028 1108.3 542.33 1109.32 546.618C1110.36 550.961 1109.88 553.881 1108.35 555.57C1106.83 557.258 1103.97 558.035 1099.55 557.442C1095.18 556.857 1089.66 554.977 1083.33 551.904C1070.69 545.768 1055.16 535.029 1039.76 521.124C1024.37 507.219 1012.11 492.855 1004.72 480.906C1001.02 474.923 998.594 469.62 997.568 465.333C996.53 460.989 997.012 458.07 998.538 456.381Z" stroke="#655163" stroke-opacity="1" stroke-width="3"/>
<path d="M859.301 306.672C860.826 304.983 863.682 304.207 868.109 304.8C872.478 305.385 878 307.265 884.327 310.337C896.964 316.474 912.497 327.212 927.892 341.118C943.288 355.023 955.546 369.387 962.933 381.336C966.632 387.319 969.062 392.621 970.087 396.909C971.126 401.253 970.643 404.172 969.118 405.861C967.593 407.549 964.737 408.326 960.31 407.733C955.941 407.148 950.419 405.268 944.092 402.196C931.456 396.059 915.922 385.321 900.527 371.415C885.131 357.51 872.873 343.146 865.486 331.197C861.788 325.214 859.357 319.911 858.332 315.624C857.293 311.28 857.776 308.361 859.301 306.672Z" stroke="#655163" stroke-opacity="1" stroke-width="3"/>
<circle cx="984" cy="431.5" r="10" transform="rotate(-90 984 431.5)" stroke="#655163" stroke-opacity="1" stroke-width="3"/>
<circle cx="885" cy="430.5" r="16" transform="rotate(-90 885 430.5)" stroke="#655163" stroke-opacity="1" stroke-width="3"/>
<circle cx="984" cy="533.5" r="16" transform="rotate(-90 984 533.5)" stroke="#655163" stroke-opacity="1" stroke-width="3"/>
<circle cx="1083" cy="431.5" r="16" transform="rotate(-90 1083 431.5)" stroke="#655163" stroke-opacity="1" stroke-width="3"/>
<circle cx="984" cy="329.5" r="16" transform="rotate(-90 984 329.5)" stroke="#655163" stroke-opacity="1" stroke-width="3"/>
<path d="M686.153 169.403C687.707 171.065 688.24 173.976 687.276 178.337C686.325 182.641 683.987 187.985 680.391 194.031C673.212 206.105 661.203 220.678 646.049 234.847C630.896 249.015 615.55 260.02 603.021 266.373C596.747 269.555 591.259 271.529 586.9 272.189C582.484 272.858 579.616 272.131 578.062 270.469C576.508 268.807 575.975 265.896 576.939 261.535C577.89 257.231 580.228 251.887 583.823 245.841C591.003 233.767 603.012 219.194 618.166 205.025C633.319 190.857 648.665 179.852 661.194 173.499C667.467 170.317 672.956 168.343 677.314 167.683C681.73 167.014 684.599 167.741 686.153 169.403Z" stroke="#655163" stroke-opacity="1" stroke-width="3"/>
<path d="M826.553 18.5307C828.107 20.1928 828.64 23.1037 827.676 27.4647C826.725 31.7691 824.387 37.1127 820.792 43.1588C813.612 55.2329 801.603 69.806 786.449 83.9747C771.296 98.1434 755.95 109.148 743.421 115.501C737.148 118.682 731.659 120.657 727.301 121.317C722.885 121.986 720.016 121.259 718.462 119.597C716.908 117.935 716.375 115.024 717.339 110.663C718.29 106.359 720.629 101.015 724.224 94.9691C731.403 82.895 743.412 68.3219 758.566 54.1532C773.72 39.9845 789.065 28.98 801.594 22.6268C807.868 19.4454 813.356 17.4709 817.715 16.8106C822.131 16.1416 824.999 16.8686 826.553 18.5307Z" stroke="#655163" stroke-opacity="1" stroke-width="3"/>
<path d="M717.038 169.881C718.563 168.192 721.418 167.416 725.845 168.009C730.214 168.594 735.736 170.473 742.064 173.546C754.7 179.683 770.233 190.421 785.629 204.326C801.024 218.232 813.283 232.596 820.669 244.544C824.368 250.528 826.798 255.83 827.823 260.118C828.862 264.461 828.379 267.381 826.854 269.07C825.329 270.758 822.473 271.535 818.047 270.942C813.678 270.357 808.156 268.477 801.828 265.404C789.192 259.268 773.659 248.529 758.263 234.624C742.868 220.719 730.609 206.355 723.223 194.406C719.524 188.423 717.094 183.12 716.068 178.833C715.03 174.489 715.512 171.57 717.038 169.881Z" stroke="#655163" stroke-opacity="1" stroke-width="3"/>
<path d="M577.801 20.1721C579.326 18.4835 582.182 17.7072 586.609 18.2999C590.978 18.885 596.5 20.7647 602.827 23.8374C615.464 29.9738 630.997 40.7122 646.392 54.6177C661.788 68.5232 674.046 82.8871 681.433 94.8357C685.132 100.819 687.562 106.121 688.587 110.409C689.626 114.753 689.143 117.672 687.618 119.361C686.093 121.049 683.237 121.826 678.81 121.233C674.441 120.648 668.919 118.768 662.592 115.696C649.956 109.559 634.422 98.8207 619.027 84.9153C603.631 71.0098 591.373 56.6459 583.986 44.6972C580.288 38.7141 577.857 33.4115 576.832 29.1241C575.793 24.7804 576.276 21.8608 577.801 20.1721Z" stroke="#655163" stroke-opacity="1" stroke-width="3"/>
<circle cx="702.5" cy="145" r="10" transform="rotate(-90 702.5 145)" stroke="#655163" stroke-opacity="1" stroke-width="3"/>
<circle cx="603.5" cy="144" r="16" transform="rotate(-90 603.5 144)" stroke="#655163" stroke-opacity="1" stroke-width="3"/>
<circle cx="702.5" cy="247" r="16" transform="rotate(-90 702.5 247)" stroke="#655163" stroke-opacity="1" stroke-width="3"/>
<circle cx="801.5" cy="145" r="16" transform="rotate(-90 801.5 145)" stroke="#655163" stroke-opacity="1" stroke-width="3"/>
<circle cx="702.5" cy="43" r="16" transform="rotate(-90 702.5 43)" stroke="#655163" stroke-opacity="1" stroke-width="3"/>
<path d="M1810.65 170.403C1812.21 172.065 1812.74 174.976 1811.78 179.337C1810.82 183.641 1808.49 188.985 1804.89 195.031C1797.71 207.105 1785.7 221.678 1770.55 235.847C1755.4 250.015 1740.05 261.02 1727.52 267.373C1721.25 270.555 1715.76 272.529 1711.4 273.189C1706.98 273.858 1704.12 273.131 1702.56 271.469C1701.01 269.807 1700.47 266.896 1701.44 262.535C1702.39 258.231 1704.73 252.887 1708.32 246.841C1715.5 234.767 1727.51 220.194 1742.67 206.025C1757.82 191.857 1773.17 180.852 1785.69 174.499C1791.97 171.317 1797.46 169.343 1801.81 168.683C1806.23 168.014 1809.1 168.741 1810.65 170.403Z" stroke="#655163" stroke-opacity="1" stroke-width="3"/>
<path d="M1951.05 19.5307C1952.61 21.1928 1953.14 24.1037 1952.18 28.4647C1951.23 32.7691 1948.89 38.1127 1945.29 44.1588C1938.11 56.2329 1926.1 70.806 1910.95 84.9747C1895.8 99.1434 1880.45 110.148 1867.92 116.501C1861.65 119.682 1856.16 121.657 1851.8 122.317C1847.38 122.986 1844.52 122.259 1842.96 120.597C1841.41 118.935 1840.88 116.024 1841.84 111.663C1842.79 107.359 1845.13 102.015 1848.72 95.9691C1855.9 83.895 1867.91 69.3219 1883.07 55.1532C1898.22 40.9845 1913.57 29.98 1926.09 23.6268C1932.37 20.4454 1937.86 18.4709 1942.21 17.8106C1946.63 17.1416 1949.5 17.8686 1951.05 19.5307Z" stroke="#655163" stroke-opacity="1" stroke-width="3"/>
<path d="M1841.54 170.881C1843.06 169.192 1845.92 168.416 1850.35 169.009C1854.71 169.594 1860.24 171.473 1866.56 174.546C1879.2 180.683 1894.73 191.421 1910.13 205.326C1925.52 219.232 1937.78 233.596 1945.17 245.544C1948.87 251.528 1951.3 256.83 1952.32 261.118C1953.36 265.461 1952.88 268.381 1951.35 270.07C1949.83 271.758 1946.97 272.535 1942.55 271.942C1938.18 271.357 1932.66 269.477 1926.33 266.404C1913.69 260.268 1898.16 249.529 1882.76 235.624C1867.37 221.719 1855.11 207.355 1847.72 195.406C1844.02 189.423 1841.59 184.12 1840.57 179.833C1839.53 175.489 1840.01 172.57 1841.54 170.881Z" stroke="#655163" stroke-opacity="1" stroke-width="3"/>
<path d="M1702.3 21.1721C1703.83 19.4835 1706.68 18.7072 1711.11 19.2999C1715.48 19.885 1721 21.7647 1727.33 24.8374C1739.96 30.9738 1755.5 41.7122 1770.89 55.6177C1786.29 69.5232 1798.55 83.8871 1805.93 95.8357C1809.63 101.819 1812.06 107.121 1813.09 111.409C1814.13 115.753 1813.64 118.672 1812.12 120.361C1810.59 122.049 1807.74 122.826 1803.31 122.233C1798.94 121.648 1793.42 119.768 1787.09 116.696C1774.46 110.559 1758.92 99.8207 1743.53 85.9153C1728.13 72.0098 1715.87 57.6459 1708.49 45.6972C1704.79 39.7141 1702.36 34.4115 1701.33 30.1241C1700.29 25.7804 1700.78 22.8608 1702.3 21.1721Z" stroke="#655163" stroke-opacity="1" stroke-width="3"/>
<circle cx="1827" cy="146" r="10" transform="rotate(-90 1827 146)" stroke="#655163" stroke-opacity="1" stroke-width="3"/>
<circle cx="1728" cy="145" r="16" transform="rotate(-90 1728 145)" stroke="#655163" stroke-opacity="1" stroke-width="3"/>
<circle cx="1827" cy="248" r="16" transform="rotate(-90 1827 248)" stroke="#655163" stroke-opacity="1" stroke-width="3"/>
<circle cx="1926" cy="146" r="16" transform="rotate(-90 1926 146)" stroke="#655163" stroke-opacity="1" stroke-width="3"/>
<circle cx="1827" cy="44" r="16" transform="rotate(-90 1827 44)" stroke="#655163" stroke-opacity="1" stroke-width="3"/>
<path d="M967.653 168.903C969.207 170.565 969.74 173.476 968.776 177.837C967.825 182.141 965.487 187.485 961.891 193.531C954.712 205.605 942.703 220.178 927.549 234.347C912.396 248.515 897.05 259.52 884.521 265.873C878.247 269.055 872.759 271.029 868.4 271.689C863.984 272.358 861.116 271.631 859.562 269.969C858.008 268.307 857.475 265.396 858.439 261.035C859.39 256.731 861.728 251.387 865.323 245.341C872.503 233.267 884.512 218.694 899.666 204.525C914.819 190.357 930.165 179.352 942.694 172.999C948.967 169.817 954.456 167.843 958.814 167.183C963.23 166.514 966.099 167.241 967.653 168.903Z" stroke="#655163" stroke-opacity="1" stroke-width="3"/>
<path d="M1108.05 18.0307C1109.61 19.6928 1110.14 22.6037 1109.18 26.9647C1108.23 31.2691 1105.89 36.6127 1102.29 42.6588C1095.11 54.7329 1083.1 69.306 1067.95 83.4747C1052.8 97.6434 1037.45 108.648 1024.92 115.001C1018.65 118.182 1013.16 120.157 1008.8 120.817C1004.38 121.486 1001.52 120.759 999.962 119.097C998.408 117.435 997.875 114.524 998.839 110.163C999.79 105.859 1002.13 100.515 1005.72 94.4691C1012.9 82.395 1024.91 67.8219 1040.07 53.6532C1055.22 39.4845 1070.57 28.48 1083.09 22.1268C1089.37 18.9454 1094.86 16.9709 1099.21 16.3106C1103.63 15.6416 1106.5 16.3686 1108.05 18.0307Z" stroke="#655163" stroke-opacity="1" stroke-width="3"/>
<path d="M998.538 169.381C1000.06 167.692 1002.92 166.916 1007.35 167.509C1011.71 168.094 1017.24 169.973 1023.56 173.046C1036.2 179.183 1051.73 189.921 1067.13 203.826C1082.52 217.732 1094.78 232.096 1102.17 244.044C1105.87 250.028 1108.3 255.33 1109.32 259.618C1110.36 263.961 1109.88 266.881 1108.35 268.57C1106.83 270.258 1103.97 271.035 1099.55 270.442C1095.18 269.857 1089.66 267.977 1083.33 264.904C1070.69 258.768 1055.16 248.029 1039.76 234.124C1024.37 220.219 1012.11 205.855 1004.72 193.906C1001.02 187.923 998.594 182.62 997.568 178.333C996.53 173.989 997.012 171.07 998.538 169.381Z" stroke="#655163" stroke-opacity="1" stroke-width="3"/>
<path d="M859.301 19.6721C860.826 17.9835 863.682 17.2072 868.109 17.7999C872.478 18.385 878 20.2647 884.327 23.3374C896.964 29.4738 912.497 40.2122 927.892 54.1177C943.288 68.0232 955.546 82.3871 962.933 94.3357C966.632 100.319 969.062 105.621 970.087 109.909C971.126 114.253 970.643 117.172 969.118 118.861C967.593 120.549 964.737 121.326 960.31 120.733C955.941 120.148 950.419 118.268 944.092 115.196C931.456 109.059 915.922 98.3207 900.527 84.4153C885.131 70.5098 872.873 56.1459 865.486 44.1972C861.788 38.2141 859.357 32.9115 858.332 28.6241C857.293 24.2804 857.776 21.3608 859.301 19.6721Z" stroke="#655163" stroke-opacity="1" stroke-width="3"/>
<circle cx="984" cy="144.5" r="10" transform="rotate(-90 984 144.5)" stroke="#655163" stroke-opacity="1" stroke-width="3"/>
<circle cx="885" cy="143.5" r="16" transform="rotate(-90 885 143.5)" stroke="#655163" stroke-opacity="1" stroke-width="3"/>
<circle cx="984" cy="246.5" r="16" transform="rotate(-90 984 246.5)" stroke="#655163" stroke-opacity="1" stroke-width="3"/>
<circle cx="1083" cy="144.5" r="16" transform="rotate(-90 1083 144.5)" stroke="#655163" stroke-opacity="1" stroke-width="3"/>
<circle cx="984" cy="42.5" r="16" transform="rotate(-90 984 42.5)" stroke="#655163" stroke-opacity="1" stroke-width="3"/>
</svg>
